<svg xmlns="http://www.w3.org/2000/svg" viewBox="0 0 200 200">
  <!-- Definitions for gradients, shadows, and glow -->
  <defs>
    <!-- Background gradient with modern colors -->
    <linearGradient id="bgGradient" x1="0%" y1="0%" x2="100%" y2="100%">
      <stop offset="0%" stop-color="#2a5298" />
      <stop offset="100%" stop-color="#5e92f3" />
    </linearGradient>
    
    <!-- Enhanced glow effect -->
    <filter id="glow" x="-30%" y="-30%" width="160%" height="160%">
      <feGaussianBlur in="SourceGraphic" stdDeviation="4" result="blur" />
      <feColorMatrix type="matrix" values="0 0 0 0 1  0 0 0 0 1  0 0 0 0 1  0 0 0 0.6 0" result="coloredBlur" />
      <feMerge>
        <feMergeNode in="coloredBlur" />
        <feMergeNode in="SourceGraphic" />
      </feMerge>
    </filter>
    
    <!-- Shadow effect -->
    <filter id="shadow" x="-20%" y="-20%" width="140%" height="140%">
      <feGaussianBlur in="SourceAlpha" stdDeviation="2" result="blur" />
      <feOffset dx="2" dy="2" result="offsetBlur" />
      <feComponentTransfer>
        <feFuncA type="linear" slope="0.5" />
      </feComponentTransfer>
      <feMerge>
        <feMergeNode />
        <feMergeNode in="SourceGraphic" />
      </feMerge>
    </filter>
  </defs>

  <!-- Main circular background -->
  <circle cx="100" cy="100" r="90" fill="url(#bgGradient)" filter="url(#shadow)" />
  
  <!-- Image frame with shadow -->
  <rect x="55" y="50" width="90" height="70" rx="5" ry="5" fill="#f5f5f5" stroke="#333" stroke-width="2" filter="url(#shadow)" />
  
  <!-- Enhanced image content (mountain and sun) -->
  <g clip-path="url(#imageClip)">
    <!-- Mountain with gradient -->
    <linearGradient id="mountainGradient" x1="0%" y1="0%" x2="0%" y2="100%">
      <stop offset="0%" stop-color="#78C0E0" />
      <stop offset="100%" stop-color="#4682b4" />
    </linearGradient>
    <polygon points="55,120 75,90 100,100 125,80 145,120" fill="url(#mountainGradient)" />
    
    <!-- Sun with glow -->
    <circle cx="130" cy="65" r="12" fill="#FFD700" filter="url(#glow)" />
    <circle cx="130" cy="65" r="8" fill="#FFA500" />
  </g>
  
  <!-- Clip path for image content -->
  <clipPath id="imageClip">
    <rect x="55" y="50" width="90" height="70" rx="5" ry="5" />
  </clipPath>
  
  
  <!-- Central metadata display -->
  <rect x="65" y="125" width="70" height="35" rx="8" ry="8" fill="#ffffff" filter="url(#shadow)" />
  
  <!-- Metadata content lines -->
  <g fill="#333">
    <rect x="70" y="130" width="60" height="2" rx="1" ry="1" />
    <rect x="70" y="135" width="45" height="2" rx="1" ry="1" />
    <rect x="70" y="140" width="55" height="2" rx="1" ry="1" />
    <rect x="70" y="145" width="50" height="2" rx="1" ry="1" />
    <rect x="70" y="150" width="60" height="2" rx="1" ry="1" />
    <rect x="70" y="155" width="40" height="2" rx="1" ry="1" />
  </g>
  
  <!-- Tech code elements with improved typography -->
  <g fill="#e0e0e0" opacity="0.8">
    <text x="50" y="45" font-family="Arial, sans-serif" font-size="7">EXIF: F2.8</text>
    <text x="125" y="45" font-family="Arial, sans-serif" font-size="7">ISO: 100</text>
    <text x="50" y="170" font-family="Arial, sans-serif" font-size="7">1/250s</text>
    <text x="115" y="170" font-family="Arial, sans-serif" font-size="7">GPS: 37.42N</text>
  </g>
  
  <!-- Central connecting lines with enhanced glow -->
  <g stroke="#ffffff" stroke-width="1.5" filter="url(#glow)">
    <line x1="70" y1="150" x2="65" y2="150" />
    <line x1="130" y1="150" x2="135" y2="150" />
  </g>
</svg>